<svg width="425" height="317" viewBox="0 0 425 317" fill="none" xmlns="http://www.w3.org/2000/svg">
<rect x="212.004" y="313.689" width="220.062" height="220.062" transform="rotate(-134.904 212.004 313.689)" stroke="#173445" stroke-width="3.5"/>
<rect x="1.75" y="99.9135" width="421.5" height="117.5" stroke="#173445" stroke-width="3.5"/>
<path d="M144.018 126.436V183.163H136.152L107.317 141.56H106.791V183.163H98.2322V126.436H106.154L135.016 168.095H135.543V126.436H144.018ZM205.78 154.8C205.78 160.857 204.672 166.064 202.456 170.422C200.24 174.761 197.203 178.104 193.343 180.449C189.502 182.776 185.135 183.939 180.242 183.939C175.33 183.939 170.944 182.776 167.085 180.449C163.244 178.104 160.215 174.752 157.999 170.394C155.784 166.036 154.676 160.838 154.676 154.8C154.676 148.743 155.784 143.545 157.999 139.205C160.215 134.847 163.244 131.505 167.085 129.178C170.944 126.833 175.33 125.661 180.242 125.661C185.135 125.661 189.502 126.833 193.343 129.178C197.203 131.505 200.24 134.847 202.456 139.205C204.672 143.545 205.78 148.743 205.78 154.8ZM197.304 154.8C197.304 150.183 196.556 146.296 195.061 143.139C193.583 139.962 191.552 137.562 188.967 135.937C186.4 134.293 183.492 133.472 180.242 133.472C176.973 133.472 174.056 134.293 171.489 135.937C168.922 137.562 166.891 139.962 165.395 143.139C163.918 146.296 163.179 150.183 163.179 154.8C163.179 159.416 163.918 163.313 165.395 166.489C166.891 169.646 168.922 172.047 171.489 173.69C174.056 175.315 176.973 176.128 180.242 176.128C183.492 176.128 186.4 175.315 188.967 173.69C191.552 172.047 193.583 169.646 195.061 166.489C196.556 163.313 197.304 159.416 197.304 154.8ZM216.451 183.163V126.436H237.225C241.251 126.436 244.584 127.101 247.224 128.431C249.865 129.742 251.841 131.524 253.152 133.776C254.463 136.011 255.119 138.531 255.119 141.338C255.119 143.702 254.685 145.696 253.817 147.321C252.949 148.928 251.786 150.22 250.327 151.199C248.886 152.159 247.298 152.861 245.562 153.304V153.858C247.446 153.95 249.283 154.56 251.075 155.686C252.884 156.794 254.38 158.373 255.562 160.423C256.744 162.472 257.335 164.965 257.335 167.901C257.335 170.801 256.651 173.404 255.285 175.712C253.937 178.002 251.85 179.821 249.025 181.169C246.2 182.499 242.589 183.163 238.195 183.163H216.451ZM225.01 175.823H237.364C241.463 175.823 244.399 175.029 246.172 173.441C247.945 171.853 248.831 169.868 248.831 167.486C248.831 165.695 248.379 164.051 247.474 162.556C246.569 161.06 245.276 159.869 243.596 158.982C241.934 158.096 239.958 157.653 237.668 157.653H225.01V175.823ZM225.01 150.977H236.477C238.398 150.977 240.124 150.608 241.657 149.869C243.208 149.131 244.436 148.097 245.341 146.767C246.264 145.419 246.726 143.831 246.726 142.003C246.726 139.658 245.904 137.691 244.261 136.103C242.617 134.515 240.097 133.721 236.699 133.721H225.01V150.977ZM276.045 126.436V183.163H267.486V126.436H276.045ZM319.449 141.338C319.154 138.716 317.935 136.685 315.793 135.244C313.651 133.786 310.955 133.056 307.705 133.056C305.378 133.056 303.365 133.426 301.667 134.164C299.968 134.884 298.647 135.882 297.706 137.156C296.782 138.411 296.321 139.842 296.321 141.449C296.321 142.797 296.635 143.96 297.262 144.939C297.909 145.918 298.749 146.739 299.783 147.404C300.836 148.051 301.962 148.595 303.162 149.038C304.363 149.463 305.517 149.814 306.625 150.091L312.164 151.531C313.974 151.975 315.83 152.575 317.732 153.332C319.634 154.089 321.397 155.086 323.022 156.323C324.647 157.56 325.958 159.093 326.956 160.921C327.971 162.749 328.479 164.938 328.479 167.486C328.479 170.699 327.648 173.552 325.986 176.045C324.343 178.538 321.951 180.504 318.812 181.945C315.691 183.385 311.915 184.105 307.483 184.105C303.236 184.105 299.561 183.431 296.459 182.083C293.357 180.735 290.929 178.824 289.174 176.35C287.42 173.857 286.451 170.902 286.266 167.486H294.853C295.019 169.536 295.684 171.244 296.847 172.61C298.029 173.958 299.534 174.965 301.362 175.629C303.208 176.276 305.23 176.599 307.428 176.599C309.847 176.599 311.998 176.22 313.882 175.463C315.784 174.688 317.279 173.617 318.369 172.25C319.458 170.865 320.003 169.249 320.003 167.403C320.003 165.722 319.523 164.347 318.563 163.276C317.621 162.205 316.338 161.318 314.713 160.617C313.106 159.915 311.287 159.296 309.256 158.761L302.553 156.933C298.01 155.695 294.409 153.877 291.75 151.476C289.11 149.075 287.789 145.899 287.789 141.948C287.789 138.679 288.676 135.826 290.449 133.389C292.221 130.951 294.622 129.058 297.65 127.71C300.679 126.344 304.095 125.661 307.899 125.661C311.74 125.661 315.128 126.335 318.064 127.683C321.019 129.031 323.346 130.886 325.044 133.25C326.743 135.595 327.63 138.291 327.703 141.338H319.449Z" fill="#173445"/>
</svg>
